<svg width="30" height="30" viewBox="0 0 30 30" fill="none" xmlns="http://www.w3.org/2000/svg">
<g clip-path="url(#clip0_36_56)">
<path d="M24.9636 6.48874L23.0571 26.6828L14.4873 28.9292L5.9411 26.686L4.03662 6.48874H24.9636Z" fill="#E44D26"/>
<path d="M14.5 27.2122L21.4248 25.397L23.054 8.14017H14.5V27.2122Z" fill="#F16529"/>
<path d="M10.7938 13.0944H14.5V10.6173H7.93066L7.99338 11.2819L8.63728 18.1081H14.5V15.631H11.0332L10.7938 13.0944Z" fill="#EBEBEB"/>
<path d="M11.3843 19.3467H8.75439L9.12143 23.2362L14.488 24.6448L14.5 24.6416V22.0644L14.4885 22.0673L11.5708 21.3224L11.3843 19.3467Z" fill="#EBEBEB"/>
<path d="M5.98389 1H7.31525V2.24372H8.53314V1H9.86456V4.7663H8.53319V3.50512H7.31531V4.7663H5.98394L5.98389 1Z" fill="black"/>
<path d="M11.6149 2.24896H10.4429V1H14.119V2.24896H12.9464V4.7663H11.615L11.6149 2.24896Z" fill="black"/>
<path d="M14.7026 1H16.0909L16.9448 2.32337L17.7979 1H19.1867V4.7663H17.8608V2.89952L16.9448 4.23865H16.9219L16.0053 2.89952V4.7663H14.7026V1Z" fill="black"/>
<path d="M19.8491 1H21.1809V3.52138H23.0532V4.7663H19.8491V1Z" fill="black"/>
<path d="M14.4912 18.1081H17.7172L17.4132 21.3208L14.4912 22.0664V24.6436L19.862 23.2361L19.9014 22.8176L20.5171 16.2962L20.581 15.631H14.4912V18.1081Z" fill="white"/>
<path d="M14.4912 13.0884V13.0944H20.8194L20.8719 12.5377L20.9913 11.2819L21.0539 10.6173H14.4912V13.0884Z" fill="white"/>
</g>
<defs>
<clipPath id="clip0_36_56">
<rect width="21" height="28" fill="white" transform="translate(4 1)"/>
</clipPath>
</defs>
</svg>
