<svg width="30" height="30" viewBox="0 0 30 30" fill="none" xmlns="http://www.w3.org/2000/svg">
<g clip-path="url(#clip0_37_75)">
<path d="M4 4H26V27H4V4Z" fill="#F7DF1E"/>
<path d="M9.7847 23.2205L11.4683 22.1553C11.7931 22.7573 12.0886 23.2667 12.7973 23.2667C13.4766 23.2667 13.9049 22.9889 13.9049 21.9083V14.5592H15.9724V21.9388C15.9724 24.1775 14.7172 25.1965 12.8859 25.1965C11.232 25.1965 10.272 24.301 9.78467 23.2203" fill="black"/>
<path d="M17.0952 22.9889L18.7786 21.9699C19.2217 22.7265 19.7977 23.2822 20.8166 23.2822C21.6732 23.2822 22.2195 22.8345 22.2195 22.2169C22.2195 21.4758 21.6584 21.2133 20.7132 20.7812L20.1965 20.5494C18.7048 19.8857 17.7154 19.052 17.7154 17.2919C17.7154 15.6708 18.8968 14.4356 20.7428 14.4356C22.0572 14.4356 23.0023 14.9143 23.6815 16.1649L22.0718 17.2455C21.7174 16.5817 21.3335 16.3193 20.7429 16.3193C20.1374 16.3193 19.7534 16.7207 19.7534 17.2455C19.7534 17.894 20.1374 18.1565 21.0233 18.558L21.5402 18.7895C23.2975 19.577 24.287 20.3797 24.287 22.186C24.287 24.1315 22.825 25.1966 20.861 25.1966C18.9412 25.1966 17.7006 24.2395 17.0952 22.9889Z" fill="black"/>
</g>
<defs>
<clipPath id="clip0_37_75">
<rect width="22" height="23" fill="white" transform="translate(4 4)"/>
</clipPath>
</defs>
</svg>
