<svg width="30" height="30" viewBox="0 0 30 30" fill="none" xmlns="http://www.w3.org/2000/svg">
<g clip-path="url(#clip0_37_89)">
<mask id="mask0_37_89" style="mask-type:luminance" maskUnits="userSpaceOnUse" x="2" y="2" width="26" height="25">
<path d="M15 27C22.1797 27 28 21.4036 28 14.5C28 7.59644 22.1797 2 15 2C7.8203 2 2 7.59644 2 14.5C2 21.4036 7.8203 27 15 27Z" fill="white"/>
</mask>
<g mask="url(#mask0_37_89)">
<path d="M15 27C22.1797 27 28 21.4036 28 14.5C28 7.59644 22.1797 2 15 2C7.8203 2 2 7.59644 2 14.5C2 21.4036 7.8203 27 15 27Z" fill="black"/>
<path d="M23.5954 23.8778L11.987 9.5H9.7998V19.4958H11.5495V11.6366L22.2219 24.8951C22.7035 24.5853 23.1622 24.2451 23.5954 23.8778Z" fill="url(#paint0_linear_37_89)"/>
<path d="M20.3447 9.5H18.6113V19.5H20.3447V9.5Z" fill="url(#paint1_linear_37_89)"/>
</g>
</g>
<defs>
<linearGradient id="paint0_linear_37_89" x1="777.284" y1="877.556" x2="1216.29" y2="1443.43" gradientUnits="userSpaceOnUse">
<stop stop-color="white"/>
<stop offset="1" stop-color="white" stop-opacity="0"/>
</linearGradient>
<linearGradient id="paint1_linear_37_89" x1="105.278" y1="9.5" x2="102.594" y2="743.865" gradientUnits="userSpaceOnUse">
<stop stop-color="white"/>
<stop offset="1" stop-color="white" stop-opacity="0"/>
</linearGradient>
<clipPath id="clip0_37_89">
<rect width="26" height="25" fill="white" transform="translate(2 2)"/>
</clipPath>
</defs>
</svg>
