<svg width="30" height="30" viewBox="0 0 30 30" fill="none" xmlns="http://www.w3.org/2000/svg">
<g clip-path="url(#clip0_37_121)">
<path d="M3 14.7955C3.01 14.7625 3.018 14.7285 3.0225 14.6945C3.041 14.346 3.045 13.9935 3.0825 13.6445C3.141 12.5145 3.518 11.4245 4.17 10.4995C4.46392 10.1017 4.84707 9.77847 5.28865 9.55573C5.73023 9.33298 6.21792 9.21696 6.7125 9.217H14.805C14.9625 9.217 14.9625 9.217 14.9625 9.0595V8.497C14.9625 8.381 14.9285 8.355 14.82 8.355H9.3115C9.2175 8.355 9.184 8.3285 9.184 8.231V5.483C9.202 5.085 9.368 4.708 9.649 4.4255C10.0222 4.02831 10.4869 3.72843 11.0025 3.552C11.6322 3.32558 12.287 3.17584 12.9525 3.106C13.8623 3.00213 14.7791 2.97453 15.6935 3.0235C16.6795 3.042 17.655 3.223 18.5815 3.5595C19.217 3.77383 19.7787 4.16391 20.2015 4.6845C20.5414 5.12193 20.7095 5.66865 20.674 6.2215C20.6515 6.6865 20.674 7.155 20.674 7.6235V10.2185C20.674 10.728 20.674 11.2415 20.6515 11.7475C20.6479 12.2962 20.4777 12.8309 20.1637 13.2809C19.8496 13.7308 19.4063 14.0749 18.8925 14.2675C18.394 14.4716 17.8596 14.5734 17.321 14.567H11.591C10.9851 14.5554 10.3879 14.7124 9.866 15.0205C9.19863 15.4399 8.72318 16.1052 8.5425 16.8725C8.43377 17.2592 8.37941 17.6593 8.381 18.061V20.659C8.381 20.8315 8.381 20.828 8.2085 20.8315C7.586 20.8315 6.9635 20.8505 6.3335 20.8315C5.71694 20.8066 5.12886 20.5653 4.6725 20.15C4.14201 19.6675 3.7465 19.055 3.525 18.373C3.30051 17.753 3.15797 17.1064 3.101 16.4495C3.0635 16.0295 3.0485 15.6095 3.0225 15.1935C3.01763 15.1469 3.01011 15.1007 3 15.055V14.7955Z" fill="#3772A4"/>
<path d="M10.6016 5.86901C10.603 6.07705 10.6661 6.27999 10.7827 6.45225C10.8994 6.62451 11.0644 6.75837 11.2571 6.83696C11.4497 6.91555 11.6613 6.93534 11.8651 6.89385C12.069 6.85236 12.256 6.75143 12.4026 6.6038C12.5492 6.45618 12.6488 6.26845 12.6888 6.0643C12.7289 5.86015 12.7076 5.64871 12.6276 5.45664C12.5477 5.26458 12.4126 5.10049 12.2396 4.98505C12.0665 4.86962 11.8631 4.80802 11.6551 4.80801C11.375 4.81012 11.1071 4.92282 10.9098 5.12156C10.7125 5.32029 10.6017 5.58895 10.6016 5.86901Z" fill="black"/>
<path d="M10.6016 5.869C10.6016 5.73045 10.6289 5.59326 10.6819 5.46526C10.7349 5.33727 10.8126 5.22096 10.9106 5.123C11.0085 5.02503 11.1248 4.94732 11.2528 4.8943C11.3808 4.84128 11.518 4.814 11.6566 4.814C11.7951 4.814 11.9323 4.84128 12.0603 4.8943C12.1883 4.94732 12.3046 5.02503 12.4026 5.123C12.5005 5.22096 12.5782 5.33727 12.6313 5.46526C12.6843 5.59326 12.7116 5.73045 12.7116 5.869C12.7116 6.1488 12.6004 6.41714 12.4026 6.61499C12.2047 6.81284 11.9364 6.924 11.6566 6.924C11.3768 6.924 11.1084 6.81284 10.9106 6.61499C10.7127 6.41714 10.6016 6.1488 10.6016 5.869Z" fill="white"/>
<path d="M26.9999 15.2005C26.9899 15.2335 26.9819 15.2675 26.9774 15.302C26.9589 15.6505 26.9549 16.003 26.9174 16.352C26.8588 17.4819 26.4818 18.5722 25.8299 19.497C25.5363 19.8954 25.1533 20.2193 24.7117 20.4427C24.2701 20.6661 23.7822 20.7826 23.2874 20.783H15.1949C15.0374 20.783 15.0374 20.783 15.0374 20.9405V21.503C15.0374 21.619 15.0714 21.6455 15.1799 21.6455H20.6889C20.7824 21.6455 20.8164 21.6715 20.8164 21.769V24.517C20.798 24.915 20.6323 25.292 20.3514 25.5745C19.978 25.9718 19.5132 26.2716 18.9974 26.448C18.3689 26.6741 17.7156 26.8238 17.0514 26.894C16.1414 26.998 15.2244 27.0255 14.3099 26.9765C13.3244 26.9583 12.3487 26.7771 11.4224 26.4405C10.7869 26.2262 10.2252 25.8361 9.80236 25.3155C9.46243 24.8781 9.29436 24.3313 9.32986 23.7785C9.35236 23.3135 9.32986 22.845 9.32986 22.3765V19.7815C9.32986 19.272 9.32986 18.7585 9.35236 18.2525C9.3559 17.7038 9.52591 17.1691 9.83991 16.7192C10.1539 16.2692 10.5971 15.9251 11.1109 15.7325C11.6093 15.5284 12.1438 15.4266 12.6824 15.433H18.4089C19.0148 15.4446 19.612 15.2876 20.1339 14.9795C20.802 14.5591 21.2776 13.8922 21.4574 13.1235C21.5661 12.7367 21.6204 12.3367 21.6189 11.935V9.337C21.6189 9.1645 21.6189 9.1685 21.7914 9.1645C22.4139 9.1645 23.0364 9.146 23.6664 9.1645C24.283 9.18966 24.8711 9.43131 25.3274 9.847C25.8578 10.3295 26.2533 10.942 26.4749 11.624C26.6985 12.2464 26.8397 12.8954 26.8949 13.5545C26.9324 13.9745 26.9474 14.3945 26.9739 14.8105C26.9789 14.856 26.9864 14.901 26.9964 14.9455C26.9989 15.028 26.9999 15.113 26.9999 15.2005Z" fill="#FFDA4B"/>
<path d="M19.3985 23.996C19.397 23.788 19.334 23.585 19.2173 23.4128C19.1006 23.2405 18.9356 23.1067 18.743 23.0281C18.5503 22.9495 18.3388 22.9297 18.1349 22.9712C17.931 23.0127 17.744 23.1136 17.5974 23.2612C17.4508 23.4089 17.3513 23.5966 17.3112 23.8007C17.2712 24.0049 17.2925 24.2163 17.3724 24.4084C17.4524 24.6004 17.5874 24.7645 17.7605 24.88C17.9336 24.9954 18.1369 25.057 18.345 25.057C18.625 25.0549 18.8929 24.9422 19.0902 24.7435C19.2876 24.5447 19.3984 24.2761 19.3985 23.996Z" fill="black"/>
<path d="M19.3986 23.996C19.3986 24.2758 19.2874 24.5442 19.0896 24.742C18.8917 24.9399 18.6234 25.051 18.3436 25.051C18.0638 25.051 17.7954 24.9399 17.5976 24.742C17.3997 24.5442 17.2886 24.2758 17.2886 23.996C17.2886 23.7162 17.3997 23.4479 17.5976 23.25C17.7954 23.0522 18.0638 22.941 18.3436 22.941C18.6234 22.941 18.8917 23.0522 19.0896 23.25C19.2874 23.4479 19.3986 23.7162 19.3986 23.996Z" fill="white"/>
</g>
<defs>
<clipPath id="clip0_37_121">
<rect width="24" height="24" fill="white" transform="translate(3 3)"/>
</clipPath>
</defs>
</svg>
