<svg width="30" height="30" viewBox="0 0 30 30" fill="none" xmlns="http://www.w3.org/2000/svg">
<g clip-path="url(#clip0_37_78)">
<path d="M15.4543 17.3194C16.788 17.3194 17.8691 16.27 17.8691 14.9756C17.8691 13.6812 16.788 12.6319 15.4543 12.6319C14.1207 12.6319 13.0396 13.6812 13.0396 14.9756C13.0396 16.27 14.1207 17.3194 15.4543 17.3194Z" fill="#00D8FF"/>
<path d="M15.4544 20.3494C12.5519 20.4175 9.65678 20.0378 6.87709 19.2244C5.59304 18.8293 4.39542 18.2069 3.34477 17.3888C2.94385 17.1092 2.60997 16.7489 2.36605 16.3323C2.12213 15.9158 1.97394 15.453 1.93164 14.9756C1.93164 13.4259 3.68573 11.9072 6.62403 10.9134C9.47803 10.0329 12.46 9.60614 15.4544 9.64969C18.4088 9.60963 21.3508 10.0287 24.1688 10.8909C25.4054 11.2736 26.5624 11.8659 27.5862 12.6403C27.9803 12.9068 28.3091 13.2541 28.5495 13.6577C28.7899 14.0613 28.9358 14.5112 28.9771 14.9756C28.9771 16.5863 27.0163 18.2184 23.8578 19.2328C21.1319 20.0197 18.2978 20.3963 15.4544 20.3494ZM15.4544 10.7709C12.5896 10.7338 9.73698 11.1395 7.00363 11.9728C4.29908 12.8888 3.08687 14.1413 3.08687 14.9728C3.08687 15.8428 4.38988 17.2106 7.2509 18.1603C9.91012 18.9346 12.6789 19.295 15.4544 19.2281C18.1748 19.2753 20.8866 18.9181 23.4956 18.1688C26.4657 17.2134 27.818 15.8438 27.818 14.9756C27.7693 14.6777 27.6574 14.3929 27.4895 14.139C27.3216 13.8852 27.1013 13.6679 26.8424 13.5009C25.9265 12.8139 24.8929 12.289 23.7892 11.9503C21.0934 11.1288 18.2796 10.7307 15.4544 10.7709Z" fill="#00D8FF"/>
<path d="M9.96834 26.6653C9.51774 26.6754 9.07246 26.5693 8.67788 26.3578C7.2947 25.5834 6.81561 23.3503 7.39612 20.3831C8.03618 17.5435 9.14519 14.8231 10.6802 12.3272C12.1201 9.82323 13.9635 7.55899 16.1405 5.62032C17.0998 4.7716 18.2064 4.09458 19.4091 3.62063C19.8441 3.42276 20.3187 3.32019 20.7991 3.32019C21.2795 3.32019 21.754 3.42276 22.189 3.62063C23.6273 4.42501 24.1035 6.88876 23.4321 10.0509C22.7723 12.7365 21.6921 15.3079 20.2292 17.6756C18.84 20.15 17.0546 22.3946 14.9399 24.3253C13.9457 25.2073 12.792 25.9031 11.537 26.3775C11.0345 26.5585 10.5042 26.6558 9.96834 26.6653ZM11.6809 12.8841C10.2167 15.2741 9.15375 17.875 8.53203 20.5894C7.99788 23.3222 8.51078 24.9656 9.25646 25.3838C10.0292 25.8178 11.905 25.4063 14.1826 23.475C16.2014 21.6253 17.9054 19.4768 19.2314 17.1094C20.6329 14.8458 21.6691 12.3873 22.304 9.81938C22.9357 6.84282 22.3899 5.02032 21.6153 4.58719C21.3249 4.47922 21.0147 4.43088 20.7041 4.44525C20.3935 4.45961 20.0894 4.53635 19.811 4.67063C18.7404 5.09939 17.7562 5.7081 16.9036 6.46876C14.8236 8.32574 13.0628 10.4934 11.6877 12.8897L11.6809 12.8841Z" fill="#00D8FF"/>
<path d="M20.9382 26.6775C19.6294 26.6775 17.967 25.9088 16.2361 24.4641C14.021 22.5078 12.1465 20.2166 10.6851 17.6794C9.16928 15.2178 8.06905 12.5368 7.42607 9.73782C7.14723 8.50641 7.09555 7.23675 7.27346 5.98782C7.31459 5.52452 7.45994 5.07561 7.69927 4.67276C7.93859 4.2699 8.26606 3.92292 8.65857 3.65626C10.0949 2.84907 12.5319 3.67876 15.0191 5.82189C17.0867 7.71768 18.8425 9.91004 20.2253 12.3225C21.7402 14.7266 22.8519 17.3489 23.5191 20.0916C23.8099 21.3682 23.8548 22.686 23.6514 23.9784C23.603 24.4551 23.449 24.9159 23.1999 25.3294C22.9508 25.7428 22.6126 26.0991 22.2083 26.3738C21.8202 26.5826 21.3818 26.6874 20.9382 26.6775ZM11.6848 17.115C13.0867 19.5398 14.8774 21.7325 16.9895 23.6109C19.1619 25.425 20.885 25.815 21.6259 25.3922C22.3986 24.9563 22.9685 23.1769 22.3812 20.2978C21.7378 17.6793 20.6715 15.1762 19.2218 12.8813C17.9022 10.5723 16.2262 8.47301 14.2522 6.65626C11.9108 4.63876 10.0118 4.18782 9.23812 4.62282C8.99698 4.81302 8.79908 5.04969 8.65694 5.31787C8.51479 5.58606 8.43148 5.87993 8.41227 6.18095C8.25869 7.29478 8.30872 8.42617 8.56005 9.52314C9.17853 12.1998 10.2337 14.7634 11.6857 17.1169L11.6848 17.115Z" fill="#00D8FF"/>
</g>
<defs>
<clipPath id="clip0_37_78">
<rect width="30" height="30" fill="white"/>
</clipPath>
</defs>
</svg>
