<svg width="30" height="30" viewBox="0 0 30 30" fill="none" xmlns="http://www.w3.org/2000/svg">
<g clip-path="url(#clip0_37_60)">
<path d="M14.5 7C10.9 7 8.64996 8.66237 7.75 11.987C9.1 10.3246 10.675 9.70127 12.475 10.1169C13.5019 10.354 14.236 11.0421 15.0485 11.8037C16.3722 13.0445 17.904 14.4805 21.25 14.4805C24.85 14.4805 27.1 12.8181 28 9.49351C26.65 11.1559 25.075 11.7793 23.275 11.3636C22.2481 11.1266 21.514 10.4384 20.7015 9.67682C19.3778 8.43601 17.846 7 14.5 7ZM7.75 14.4805C4.15004 14.4805 1.89996 16.1429 1 19.4675C2.35 17.8052 3.92496 17.1818 5.725 17.5974C6.75195 17.8345 7.48601 18.5226 8.29854 19.2842C9.62218 20.525 11.154 21.961 14.5 21.961C18.1 21.961 20.35 20.2987 21.25 16.974C19.9 18.6364 18.325 19.2598 16.525 18.8442C15.4981 18.6071 14.764 17.9189 13.9515 17.1573C12.6278 15.9165 11.096 14.4805 7.75 14.4805Z" fill="url(#paint0_linear_37_60)"/>
</g>
<defs>
<linearGradient id="paint0_linear_37_60" x1="-74.006" y1="485.753" x2="2161.67" y2="1881.56" gradientUnits="userSpaceOnUse">
<stop stop-color="#2298BD"/>
<stop offset="1" stop-color="#0ED7B5"/>
</linearGradient>
<clipPath id="clip0_37_60">
<rect width="27" height="15" fill="white" transform="translate(1 7)"/>
</clipPath>
</defs>
</svg>
