<svg width="30" height="30" viewBox="0 0 30 30" fill="none" xmlns="http://www.w3.org/2000/svg">
<g clip-path="url(#clip0_37_137)">
<path d="M4 15.5V27H26V4H4V15.5Z" fill="#007ACC"/>
<path d="M8.86487 15.5764L8.85791 16.5182H11.7213V25.0246H13.7469V16.5182H16.6103V15.5946C16.6103 15.0834 16.5998 14.6563 16.5859 14.6453C16.5754 14.6308 14.8329 14.6234 12.7202 14.6271L8.87544 14.638L8.86496 15.5763L8.86487 15.5764ZM21.7517 14.6113C22.3104 14.7573 22.7365 15.0164 23.1276 15.44C23.3301 15.6664 23.6304 16.0789 23.6549 16.1775C23.6618 16.2067 22.705 16.8785 22.1254 17.2545C22.1044 17.2691 22.0205 17.1741 21.9263 17.0281C21.6434 16.5973 21.3466 16.4111 20.8926 16.3783C20.2257 16.3308 19.7961 16.6959 19.7996 17.3055C19.7996 17.4845 19.8241 17.5903 19.8939 17.7364C20.0406 18.054 20.3129 18.2438 21.1685 18.6308C22.7434 19.3391 23.4174 19.8064 23.8365 20.4708C24.3044 21.212 24.4092 22.3948 24.0914 23.2746C23.7422 24.2311 22.8762 24.881 21.6574 25.0964C21.2803 25.1657 20.3863 25.1548 19.9812 25.0781C19.0978 24.9138 18.2596 24.4575 17.7428 23.8588C17.5403 23.6251 17.1456 23.0154 17.1701 22.9716C17.1806 22.957 17.2714 22.8986 17.3726 22.8365C17.4704 22.7781 17.8406 22.5553 18.1898 22.3437L18.8218 21.9603L18.9545 22.1648C19.1396 22.4605 19.5447 22.8657 19.7892 23.0008C20.491 23.3878 21.4549 23.333 21.9298 22.8876C22.1323 22.6941 22.2161 22.4933 22.2161 22.1976C22.2161 21.9311 22.1847 21.8143 22.052 21.6136C21.881 21.358 21.5317 21.1425 20.5399 20.6936C19.405 20.1824 18.9161 19.8648 18.4692 19.3609C18.2107 19.0689 17.9663 18.6016 17.865 18.2109C17.7812 17.8861 17.7602 17.0719 17.8266 16.7433C18.0606 15.5969 18.8882 14.7975 20.0825 14.5601C20.47 14.4835 21.371 14.5126 21.7517 14.6113Z" fill="white"/>
</g>
<defs>
<clipPath id="clip0_37_137">
<rect width="22" height="23" fill="white" transform="translate(4 4)"/>
</clipPath>
</defs>
</svg>
