<svg width="125" height="36" viewBox="0 0 125 36" fill="none" xmlns="http://www.w3.org/2000/svg">
<circle cx="18" cy="18" r="18" fill="#FAC901"/>
<path d="M54.3395 14.4531C54.2732 13.8329 53.9938 13.3499 53.5014 13.0043C53.0137 12.6586 52.3793 12.4858 51.598 12.4858C51.0488 12.4858 50.5777 12.5687 50.1847 12.7344C49.7917 12.9001 49.491 13.125 49.2827 13.4091C49.0743 13.6932 48.9678 14.0175 48.9631 14.3821C48.9631 14.6851 49.0317 14.9479 49.169 15.1705C49.3111 15.393 49.5028 15.5824 49.7443 15.7386C49.9858 15.8902 50.2533 16.018 50.5469 16.1222C50.8404 16.2263 51.1364 16.3139 51.4347 16.3849L52.7983 16.7259C53.3475 16.8537 53.8755 17.0265 54.3821 17.2443C54.8935 17.4621 55.3504 17.7367 55.7528 18.0682C56.16 18.3996 56.482 18.7997 56.7188 19.2685C56.9555 19.7372 57.0739 20.2865 57.0739 20.9162C57.0739 21.7685 56.8561 22.5189 56.4205 23.1676C55.9848 23.8116 55.3551 24.3158 54.5312 24.6804C53.7121 25.0402 52.7202 25.2202 51.5554 25.2202C50.4238 25.2202 49.4413 25.045 48.608 24.6946C47.7794 24.3442 47.1307 23.8329 46.6619 23.1605C46.1979 22.4882 45.947 21.669 45.9091 20.7031H48.5014C48.5393 21.2098 48.6955 21.6312 48.9702 21.9673C49.2448 22.3035 49.6023 22.5545 50.0426 22.7202C50.4877 22.8859 50.9848 22.9688 51.5341 22.9688C52.107 22.9688 52.6089 22.8835 53.0398 22.7131C53.4754 22.5379 53.8163 22.2964 54.0625 21.9886C54.3087 21.6761 54.4342 21.3116 54.4389 20.8949C54.4342 20.5161 54.3229 20.2036 54.1051 19.9574C53.8873 19.7064 53.5819 19.4981 53.1889 19.3324C52.8007 19.1619 52.3461 19.0104 51.8253 18.8778L50.1705 18.4517C48.9725 18.1439 48.0256 17.6776 47.3295 17.0526C46.6383 16.4228 46.2926 15.5871 46.2926 14.5455C46.2926 13.6884 46.5246 12.938 46.9886 12.294C47.4574 11.6501 48.0942 11.1506 48.8991 10.7955C49.7041 10.4356 50.6155 10.2557 51.6335 10.2557C52.6657 10.2557 53.5701 10.4356 54.3466 10.7955C55.1278 11.1506 55.741 11.6454 56.1861 12.2798C56.6312 12.9096 56.8608 13.634 56.875 14.4531H54.3395ZM59.4229 25V10.4545H62.0579V16.6122H68.7979V10.4545H71.44V25H68.7979V18.821H62.0579V25H59.4229ZM76.9407 10.4545V25H74.3058V10.4545H76.9407ZM79.794 25V10.4545H85.3622C86.4134 10.4545 87.2869 10.6203 87.983 10.9517C88.6837 11.2784 89.2069 11.7259 89.5526 12.294C89.9029 12.8622 90.0781 13.5062 90.0781 14.2259C90.0781 14.8177 89.9645 15.3243 89.7372 15.7457C89.5099 16.1624 89.2045 16.5009 88.821 16.7614C88.4375 17.0218 88.009 17.2088 87.5355 17.3224V17.4645C88.0516 17.4929 88.5464 17.6515 89.0199 17.9403C89.4981 18.2244 89.8887 18.6269 90.1918 19.1477C90.4948 19.6686 90.6463 20.2983 90.6463 21.0369C90.6463 21.7898 90.464 22.4669 90.0994 23.0682C89.7348 23.6648 89.1856 24.1359 88.4517 24.4815C87.7178 24.8272 86.7945 25 85.6818 25H79.794ZM82.429 22.7983H85.2628C86.2192 22.7983 86.9081 22.616 87.3295 22.2514C87.7557 21.8821 87.9688 21.4086 87.9688 20.831C87.9688 20.4001 87.8622 20.0118 87.6491 19.6662C87.4361 19.3158 87.133 19.0412 86.7401 18.8423C86.3471 18.6387 85.8783 18.5369 85.3338 18.5369H82.429V22.7983ZM82.429 16.6406H85.0355C85.4901 16.6406 85.8996 16.5578 86.2642 16.392C86.6288 16.2216 86.9152 15.9825 87.1236 15.6747C87.3366 15.3622 87.4432 14.9929 87.4432 14.5668C87.4432 14.0033 87.2443 13.5393 86.8466 13.1747C86.4536 12.8101 85.8688 12.6278 85.0923 12.6278H82.429V16.6406ZM94.8065 25H91.994L97.1147 10.4545H100.368L105.495 25H102.683L98.7979 13.4375H98.6843L94.8065 25ZM94.8988 19.2969H102.569V21.4134H94.8988V19.2969ZM107.411 10.4545H110.636L114.954 20.9943H115.124L119.442 10.4545H122.667V25H120.138V15.0071H120.004L115.984 24.9574H114.094L110.075 14.9858H109.94V25H107.411V10.4545Z" fill="black"/>
</svg>
