<svg width="60" height="60" viewBox="0 0 60 60" fill="none" xmlns="http://www.w3.org/2000/svg">
<circle cx="30" cy="30" r="30" fill="white"/>
<g clip-path="url(#clip0_22_61)">
<path fill-rule="evenodd" clip-rule="evenodd" d="M30 12C20.055 12 12 20.055 12 30C12 37.965 17.1525 44.6925 24.3075 47.0775C25.2075 47.235 25.545 46.695 25.545 46.2225C25.545 45.795 25.5225 44.3775 25.5225 42.87C21 43.7025 19.83 41.7675 19.47 40.755C19.2675 40.2375 18.39 38.64 17.625 38.2125C16.995 37.875 16.095 37.0425 17.6025 37.02C19.02 36.9975 20.0325 38.325 20.37 38.865C21.99 41.5875 24.5775 40.8225 25.6125 40.35C25.77 39.18 26.2425 38.3925 26.76 37.9425C22.755 37.4925 18.57 35.94 18.57 29.055C18.57 27.0975 19.2675 25.4775 20.415 24.2175C20.235 23.7675 19.605 21.9225 20.595 19.4475C20.595 19.4475 22.1025 18.975 25.545 21.2925C26.985 20.8875 28.515 20.685 30.045 20.685C31.575 20.685 33.105 20.8875 34.545 21.2925C37.9875 18.9525 39.495 19.4475 39.495 19.4475C40.485 21.9225 39.855 23.7675 39.675 24.2175C40.8225 25.4775 41.52 27.075 41.52 29.055C41.52 35.9625 37.3125 37.4925 33.3075 37.9425C33.96 38.505 34.5225 39.585 34.5225 41.2725C34.5225 43.68 34.5 45.615 34.5 46.2225C34.5 46.695 34.8375 47.2575 35.7375 47.0775C42.8475 44.6925 48 37.9425 48 30C48 20.055 39.945 12 30 12Z" fill="#2A2A2A"/>
</g>
<defs>
<clipPath id="clip0_22_61">
<rect width="36" height="36" fill="white" transform="translate(12 12)"/>
</clipPath>
</defs>
</svg>
