<svg width="60" height="60" viewBox="0 0 60 60" fill="none" xmlns="http://www.w3.org/2000/svg">
<circle cx="30" cy="30" r="30" fill="white"/>
<g clip-path="url(#clip0_10_207)">
<path d="M30 16.8829C34.2722 16.8829 34.7782 16.8992 36.4653 16.9762C38.0253 17.0474 38.8725 17.308 39.4363 17.5271C40.1831 17.8173 40.7162 18.1641 41.276 18.724C41.8359 19.2838 42.1827 19.8169 42.4729 20.5637C42.692 21.1275 42.9526 21.9747 43.0238 23.5346C43.1008 25.2218 43.1171 25.7278 43.1171 30C43.1171 34.2722 43.1008 34.7782 43.0238 36.4654C42.9526 38.0254 42.692 38.8725 42.4729 39.4364C42.1827 40.1832 41.8359 40.7162 41.276 41.2761C40.7162 41.836 40.1831 42.1827 39.4363 42.4729C38.8725 42.692 38.0253 42.9527 36.4653 43.0239C34.7784 43.1009 34.2724 43.1171 30 43.1171C25.7275 43.1171 25.2215 43.1009 23.5346 43.0239C21.9746 42.9527 21.1275 42.692 20.5637 42.4729C19.8168 42.1827 19.2838 41.836 18.7239 41.2761C18.164 40.7162 17.8173 40.1832 17.5271 39.4364C17.308 38.8725 17.0473 38.0254 16.9761 36.4654C16.8991 34.7782 16.8829 34.2722 16.8829 30C16.8829 25.7278 16.8991 25.2218 16.9761 23.5347C17.0473 21.9747 17.308 21.1275 17.5271 20.5637C17.8173 19.8169 18.164 19.2838 18.7239 18.724C19.2838 18.1641 19.8168 17.8173 20.5637 17.5271C21.1275 17.308 21.9746 17.0474 23.5346 16.9762C25.2218 16.8992 25.7278 16.8829 30 16.8829ZM30 14C25.6546 14 25.1098 14.0184 23.4032 14.0963C21.7001 14.174 20.5371 14.4445 19.5193 14.84C18.4672 15.2489 17.5749 15.796 16.6854 16.6855C15.7959 17.575 15.2488 18.4673 14.8399 19.5194C14.4444 20.5372 14.174 21.7002 14.0962 23.4033C14.0184 25.1098 14 25.6547 14 30C14 34.3454 14.0184 34.8903 14.0962 36.5968C14.174 38.2999 14.4444 39.4629 14.8399 40.4807C15.2488 41.5327 15.7959 42.4251 16.6854 43.3146C17.5749 44.2041 18.4672 44.7512 19.5193 45.1601C20.5371 45.5556 21.7001 45.826 23.4032 45.9038C25.1098 45.9816 25.6546 46 30 46C34.3453 46 34.8902 45.9816 36.5967 45.9038C38.2998 45.826 39.4628 45.5556 40.4806 45.1601C41.5327 44.7512 42.425 44.2041 43.3145 43.3146C44.204 42.4251 44.7511 41.5328 45.16 40.4807C45.5555 39.4629 45.826 38.2999 45.9037 36.5968C45.9816 34.8903 46 34.3454 46 30C46 25.6547 45.9816 25.1098 45.9037 23.4033C45.826 21.7002 45.5555 20.5372 45.16 19.5194C44.7511 18.4673 44.204 17.575 43.3145 16.6855C42.425 15.796 41.5327 15.2489 40.4806 14.84C39.4628 14.4445 38.2998 14.174 36.5967 14.0963C34.8902 14.0184 34.3453 14 30 14ZM30 21.7838C25.4623 21.7838 21.7837 25.4623 21.7837 30C21.7837 34.5377 25.4623 38.2163 30 38.2163C34.5377 38.2163 38.2162 34.5377 38.2162 30C38.2162 25.4623 34.5377 21.7838 30 21.7838ZM30 35.3334C27.0545 35.3334 24.6666 32.9455 24.6666 30C24.6666 27.0545 27.0545 24.6667 30 24.6667C32.9455 24.6667 35.3333 27.0545 35.3333 30C35.3333 32.9455 32.9455 35.3334 30 35.3334ZM40.4608 21.4592C40.4608 22.5196 39.6012 23.3792 38.5408 23.3792C37.4804 23.3792 36.6208 22.5196 36.6208 21.4592C36.6208 20.3988 37.4804 19.5392 38.5408 19.5392C39.6012 19.5392 40.4608 20.3988 40.4608 21.4592Z" fill="#2A2A2A"/>
</g>
<defs>
<clipPath id="clip0_10_207">
<rect width="32" height="32" fill="white" transform="translate(14 14)"/>
</clipPath>
</defs>
</svg>
