<svg width="60" height="60" viewBox="0 0 60 60" fill="none" xmlns="http://www.w3.org/2000/svg">
<circle cx="30" cy="30" r="30" fill="white"/>
<path d="M43.7857 15H17.2074C15.9895 15 15 16.0033 15 17.235V43.765C15 44.9967 15.9895 46 17.2074 46H43.7857C45.0036 46 46 44.9967 46 43.765V17.235C46 16.0033 45.0036 15 43.7857 15ZM24.3692 41.5714H19.7746V26.7772H24.3761V41.5714H24.3692ZM22.0719 24.7567C20.598 24.7567 19.4078 23.5596 19.4078 22.0926C19.4078 20.6257 20.598 19.4286 22.0719 19.4286C23.5388 19.4286 24.7359 20.6257 24.7359 22.0926C24.7359 23.5665 23.5458 24.7567 22.0719 24.7567ZM41.5922 41.5714H36.9975V34.375C36.9975 32.6589 36.9629 30.4516 34.6103 30.4516C32.2161 30.4516 31.8493 32.3199 31.8493 34.2504V41.5714H27.2547V26.7772H31.6625V28.7978H31.7248C32.3406 27.6353 33.8422 26.4105 36.0772 26.4105C40.7272 26.4105 41.5922 29.4759 41.5922 33.4616V41.5714Z" fill="#2A2A2A"/>
</svg>
